<?xml version="1.0" encoding="UTF-8"?>
<svg xmlns="http://www.w3.org/2000/svg" viewBox="0 0 1063.85 1097.21">
  <defs>
    <style>
      .cls-1 {
        fill: #fff;
      }

      .cls-2 {
        fill: #162042;
      }
    </style>
  </defs>
  <g id="Layer_5" data-name="Layer 5">
    <circle class="cls-2" cx="551.85" cy="572.01" r="512"/>
  </g>
  <g id="Layer_2" data-name="Layer 2">
    <g>
      <rect class="cls-1" x="347.77" y="563.7" width="408.15" height="52.82"/>
      <polygon class="cls-1" points="359.34 388.99 385.88 441.81 717.82 441.81 744.36 388.99 359.34 388.99"/>
      <g>
        <rect class="cls-1" x="311.27" y="470.25" width="481.17" height="52.82"/>
        <polygon class="cls-1" points="792.44 523.07 838.21 431.96 774.72 431.96 728.94 523.07 792.44 523.07"/>
        <polygon class="cls-1" points="311.27 523.07 265.49 431.96 328.98 431.96 374.76 523.07 311.27 523.07"/>
      </g>
      <g>
        <polygon class="cls-1" points="630 602.43 630 902.01 630 934.51 682.82 902.01 682.82 602.43 630 602.43"/>
        <polygon class="cls-1" points="473.71 602.43 473.71 902.01 473.71 934.51 420.89 902.01 420.89 602.43 473.71 602.43"/>
      </g>
      <polygon class="cls-1" points="525.44 602.43 525.44 959.98 525.44 966.35 551.85 982.6 578.26 966.35 578.26 959.98 578.26 602.43 525.44 602.43"/>
      <g>
        <g>
          <path class="cls-1" d="m422.14,963.16s-10.56-51.67-88.03-66.84c-77.47-15.17-76.66-18.42-89.93-43.34,0,0-4.33,44.42,30.61,71.24,34.94,26.82,34.13,21.67,83.7,22.75s63.65,16.19,63.65,16.19Z"/>
          <path class="cls-1" d="m365.8,866.26s-102.39,2.71-102.39-120.27c0-63.38-7.04-76.38-29.8-91.55,0,0,140.31,11.38,144.1,167.94,0,0-16.79-58.51-56.34-91.01,0,0,0,31.84,0,61.15,0,29.32,18.96,56.94,44.42,73.74Z"/>
          <path class="cls-1" d="m236.32,719.99s-3.79,0-25.46,0-75.84-23.84-74.76-72.59,26-69.34,26-69.34c0,0,18.42,18.96,18.42,51.46,0,32.5,20.04,78.01,55.8,90.47Z"/>
          <path class="cls-1" d="m201.65,602.43s29.25-29.57,29.25-68.96c0-39.39-8.67-42.1-24.38-80.02-15.71-37.92-33.59-52.01-17.88-92.1,0,0-33.59,33.05-33.59,80.45s10.29,56.07,24.92,88.03c14.63,31.96,24.38,54.17,21.67,72.59Z"/>
          <path class="cls-1" d="m240.12,445.33s-14.63-25.46-14.63-44.96c0-19.5,6.5-44.96,33.59-86.14,27.09-41.17,29.8-56.88,29.8-75.84,0,0,26.55,22.21,26.55,61.22,0,39-22.21,49.84-40.09,72.59-17.88,22.75-27.63,30.88-35.21,73.13Z"/>
          <path class="cls-1" d="m338.35,314.95s15.89-33.59,28.89-74.04c13-40.45,66.45-85.96,124.96-78.73,0,0-20.22,1.81-53.81,68.26-33.59,66.45-68.26,81.26-100.04,84.51Z"/>
        </g>
        <g>
          <path class="cls-1" d="m681.56,963.16s10.56-51.67,88.03-66.84c77.47-15.17,76.66-18.42,89.93-43.34,0,0,4.33,44.42-30.61,71.24-34.94,26.82-34.13,21.67-83.7,22.75-49.57,1.08-63.65,16.19-63.65,16.19Z"/>
          <path class="cls-1" d="m737.9,866.26s102.39,2.71,102.39-120.27c0-63.38,7.04-76.38,29.8-91.55,0,0-140.31,11.38-144.1,167.94,0,0,16.79-58.51,56.34-91.01v61.15c0,29.32-18.96,56.94-44.42,73.74Z"/>
          <path class="cls-1" d="m867.38,719.99h25.46c21.67,0,75.84-23.84,74.76-72.59s-26-69.34-26-69.34c0,0-18.42,18.96-18.42,51.46s-20.04,78.01-55.8,90.47Z"/>
          <path class="cls-1" d="m902.05,602.43s-29.25-29.57-29.25-68.96,8.67-42.1,24.38-80.02c15.71-37.92,33.59-52.01,17.88-92.1,0,0,33.59,33.05,33.59,80.45s-10.29,56.07-24.92,88.03c-14.63,31.96-24.38,54.17-21.67,72.59Z"/>
          <path class="cls-1" d="m863.59,445.33s14.63-25.46,14.63-44.96-6.5-44.96-33.59-86.14c-27.09-41.17-29.8-56.88-29.8-75.84,0,0-26.55,22.21-26.55,61.22s22.21,49.84,40.09,72.59c17.88,22.75,27.63,30.88,35.21,73.13Z"/>
          <path class="cls-1" d="m765.35,314.95s-15.89-33.59-28.89-74.04c-13-40.45-66.45-85.96-124.96-78.73,0,0,20.22,1.81,53.81,68.26,33.59,66.45,68.26,81.26,100.04,84.51Z"/>
        </g>
      </g>
    </g>
  </g>
</svg>